<?xml version="1.0" encoding="UTF-8"?>
<svg width="40" height="40" viewBox="0 0 40 40" fill="none" xmlns="http://www.w3.org/2000/svg">
  <rect width="40" height="40" rx="20" fill="#FF9900"/>
  <path d="M29.832 21.445C29.646 21.334 29.436 21.334 29.25 21.445C28.878 21.667 28.506 21.889 28.134 22.111C27.39 22.555 26.646 23 25.902 23.444C24.786 24.111 23.67 24.778 22.554 25.445C21.81 25.889 21.066 26.334 20.322 26.778C20.136 26.889 19.926 26.889 19.74 26.778C18.996 26.334 18.252 25.889 17.508 25.445C16.392 24.778 15.276 24.111 14.16 23.444C13.416 23 12.672 22.555 11.928 22.111C11.556 21.889 11.184 21.667 10.812 21.445C10.626 21.334 10.416 21.334 10.23 21.445C9.858 21.667 9.486 21.889 9.114 22.111C8.742 22.333 8.37 22.555 7.998 22.778C7.812 22.889 7.812 23.111 7.998 23.222C8.37 23.444 8.742 23.667 9.114 23.889C9.486 24.111 9.858 24.333 10.23 24.555C10.974 25 11.718 25.445 12.462 25.889C13.578 26.555 14.694 27.222 15.81 27.889C16.554 28.334 17.298 28.778 18.042 29.222C18.786 29.667 19.53 30.111 20.274 30.555C20.46 30.667 20.67 30.667 20.856 30.555C21.6 30.111 22.344 29.667 23.088 29.222C23.832 28.778 24.576 28.334 25.32 27.889C26.436 27.222 27.552 26.555 28.668 25.889C29.412 25.445 30.156 25 30.9 24.555C31.272 24.333 31.644 24.111 32.016 23.889C32.388 23.667 32.76 23.444 33.132 23.222C33.318 23.111 33.318 22.889 33.132 22.778C32.76 22.555 32.388 22.333 32.016 22.111C31.644 21.889 31.272 21.667 30.9 21.445C30.528 21.223 30.156 21 29.784 20.778L29.832 21.445ZM20.274 9.445C19.53 9.889 18.786 10.334 18.042 10.778C17.298 11.222 16.554 11.667 15.81 12.111C14.694 12.778 13.578 13.445 12.462 14.111C11.718 14.555 10.974 15 10.23 15.445C9.858 15.667 9.486 15.889 9.114 16.111C8.742 16.333 8.37 16.555 7.998 16.778C7.812 16.889 7.812 17.111 7.998 17.222C8.37 17.444 8.742 17.667 9.114 17.889C9.486 18.111 9.858 18.333 10.23 18.555C10.974 19 11.718 19.445 12.462 19.889C13.578 20.555 14.694 21.222 15.81 21.889C16.554 22.334 17.298 22.778 18.042 23.222C18.786 23.667 19.53 24.111 20.274 24.555C20.46 24.667 20.67 24.667 20.856 24.555C21.6 24.111 22.344 23.667 23.088 23.222C23.832 22.778 24.576 22.334 25.32 21.889C26.436 21.222 27.552 20.555 28.668 19.889C29.412 19.445 30.156 19 30.9 18.555C31.272 18.333 31.644 18.111 32.016 17.889C32.388 17.667 32.76 17.444 33.132 17.222C33.318 17.111 33.318 16.889 33.132 16.778C32.76 16.555 32.388 16.333 32.016 16.111C31.644 15.889 31.272 15.667 30.9 15.445C30.156 15 29.412 14.555 28.668 14.111C27.552 13.445 26.436 12.778 25.32 12.111C24.576 11.667 23.832 11.222 23.088 10.778C22.344 10.334 21.6 9.889 20.856 9.445C20.67 9.334 20.46 9.334 20.274 9.445Z" fill="white"/>
</svg> 