<?xml version="1.0" encoding="UTF-8"?>
<svg width="40" height="40" viewBox="0 0 40 40" fill="none" xmlns="http://www.w3.org/2000/svg">
  <rect width="40" height="40" rx="20" fill="#00387B"/>
  <path d="M20 8C13.373 8 8 13.373 8 20C8 26.627 13.373 32 20 32C26.627 32 32 26.627 32 20C32 13.373 26.627 8 20 8ZM20 12C22.387 12 24.5 13.113 25.949 14.861L23.707 17.103C22.93 16.326 21.93 15.8 20.8 15.8C18.701 15.8 17 17.501 17 19.6C17 21.699 18.701 23.4 20.8 23.4C21.93 23.4 22.93 22.874 23.707 22.097L25.949 24.339C24.5 26.087 22.387 27.2 20 27.2C15.582 27.2 12 23.618 12 19.2C12 14.782 15.582 12 20 12Z" fill="white"/>
</svg> 