<?xml version="1.0" encoding="UTF-8"?>
<svg width="40" height="40" viewBox="0 0 40 40" fill="none" xmlns="http://www.w3.org/2000/svg">
  <path d="M20 40C31.0457 40 40 31.0457 40 20C40 8.9543 31.0457 0 20 0C8.9543 0 0 8.9543 0 20C0 31.0457 8.9543 40 20 40Z" fill="#FFFFFF"/>
  <path d="M20.5 11C23.9 11 26.7 12.8 28.2 15.4L33.8 9.8C30.5 6.1 25.8 4 20.5 4C12.9 4 6.4 8.3 3.7 14.5L10.1 19.5C11.7 14.6 15.8 11 20.5 11Z" fill="#EA4335"/>
  <path d="M36.3 20.2C36.3 18.9 36.2 17.7 35.9 16.5H20.5V23.2H29.4C29 25.5 27.6 27.4 25.6 28.6L31.8 33.4C35.5 30.1 36.3 25.4 36.3 20.2Z" fill="#4285F4"/>
  <path d="M10.1 19.5L3.7 14.5C1.4 18.2 0 22.5 0 27C0 31.5 1.4 35.8 3.7 39.5L10.1 34.5C8.8 31.5 8 28.3 8 27C8 25.7 8.8 22.5 10.1 19.5Z" fill="#FBBC05"/>
  <path d="M20.5 44C25.8 44 30.5 42.2 33.9 38.8L27.7 34C25.9 35.3 23.5 36 20.5 36C15.8 36 11.7 32.4 10.1 27.5L3.7 32.5C6.4 38.7 12.9 44 20.5 44Z" fill="#34A853"/>
</svg> 