<?xml version="1.0" encoding="UTF-8"?>
<svg width="40" height="40" viewBox="0 0 40 40" fill="none" xmlns="http://www.w3.org/2000/svg">
  <rect width="40" height="40" rx="20" fill="#1A2757"/>
  <path d="M20 8C13.373 8 8 13.373 8 20C8 26.627 13.373 32 20 32C26.627 32 32 26.627 32 20C32 13.373 26.627 8 20 8ZM24.5 23.5H21.5V26.5C21.5 27.328 20.828 28 20 28C19.172 28 18.5 27.328 18.5 26.5V23.5H15.5C14.672 23.5 14 22.828 14 22C14 21.172 14.672 20.5 15.5 20.5H18.5V17.5C18.5 16.672 19.172 16 20 16C20.828 16 21.5 16.672 21.5 17.5V20.5H24.5C25.328 20.5 26 21.172 26 22C26 22.828 25.328 23.5 24.5 23.5Z" fill="white"/>
</svg> 