<?xml version="1.0" encoding="UTF-8"?>
<svg width="40" height="40" viewBox="0 0 40 40" fill="none" xmlns="http://www.w3.org/2000/svg">
  <rect width="40" height="40" rx="20" fill="#00BAF2"/>
  <path d="M11 13.6V26.4C11 27.28 11.72 28 12.6 28H27.4C28.28 28 29 27.28 29 26.4V13.6C29 12.72 28.28 12 27.4 12H12.6C11.72 12 11 12.72 11 13.6ZM24.2 20C24.2 22.32 22.32 24.2 20 24.2C17.68 24.2 15.8 22.32 15.8 20C15.8 17.68 17.68 15.8 20 15.8C22.32 15.8 24.2 17.68 24.2 20ZM20 17.4C18.56 17.4 17.4 18.56 17.4 20C17.4 21.44 18.56 22.6 20 22.6C21.44 22.6 22.6 21.44 22.6 20C22.6 18.56 21.44 17.4 20 17.4Z" fill="white"/>
</svg> 