<?xml version="1.0" encoding="UTF-8"?>
<svg width="40" height="40" viewBox="0 0 40 40" fill="none" xmlns="http://www.w3.org/2000/svg">
  <rect width="40" height="40" rx="20" fill="#5F259F"/>
  <path d="M20 8C13.373 8 8 13.373 8 20C8 26.627 13.373 32 20 32C26.627 32 32 26.627 32 20C32 13.373 26.627 8 20 8ZM23.707 24.293L20 20.586L16.293 24.293C15.902 24.684 15.269 24.684 14.878 24.293C14.487 23.902 14.487 23.269 14.878 22.878L18.586 19.171L14.878 15.464C14.487 15.073 14.487 14.44 14.878 14.049C15.269 13.658 15.902 13.658 16.293 14.049L20 17.757L23.707 14.049C24.098 13.658 24.731 13.658 25.122 14.049C25.513 14.44 25.513 15.073 25.122 15.464L21.414 19.171L25.122 22.878C25.513 23.269 25.513 23.902 25.122 24.293C24.731 24.684 24.098 24.684 23.707 24.293Z" fill="white"/>
</svg> 